<svg xmlns="http://www.w3.org/2000/svg" id="driving-mode" fill="#fff" x="0" y="0" version="1.1" viewBox="0 0 29 29" xml:space="preserve"><path d="M18 15.495h-7a1 1 0 0 0 0 2h7a1 1 0 0 0 0-2z"></path><path d="M23.812 11.583l-.877-3.728A4.982 4.982 0 0 0 18.067 4h-7.135a4.982 4.982 0 0 0-4.867 3.854l-.877 3.729A4.007 4.007 0 0 0 2 15.5V22c0 1.654 1.346 3 3 3s3-1.346 3-3v-.5h13v.5c0 1.654 1.346 3 3 3s3-1.346 3-3v-6.5c0-1.928-1.37-3.54-3.188-3.917zM8.013 8.313A2.987 2.987 0 0 1 10.933 6h7.135c1.399 0 2.6.951 2.92 2.313l.75 3.187H7.263l.75-3.187zM25 22a1 1 0 0 1-2 0v-1.5a1 1 0 0 0-1-1H7a1 1 0 0 0-1 1V22a1 1 0 0 1-2 0v-6.5c0-1.103.897-2 2-2h17c1.103 0 2 .897 2 2V22z"></path><circle cx="7" cy="16.495" r="1"></circle><circle cx="22" cy="16.495" r="1"></circle></svg>