<svg xmlns="http://www.w3.org/2000/svg" xmlns:xlink="http://www.w3.org/1999/xlink" width="47.166" height="39.728" viewBox="0 0 47.166 39.728" fill="#fff">
  <defs>
    <clipPath id="clip-path">
      <rect id="Rectangle_59482" data-name="Rectangle 59482"  width="47.166" height="39.728" transform="translate(0 0)"/>
    </clipPath>
  </defs>
  <g id="Ship-Icon-SVG-939mcdxcx" transform="translate(0 0)">
    <g id="Group_61499" data-name="Group 61499" clip-path="url(#clip-path)">
      <path id="Path_135041" data-name="Path 135041" d="M42.235,36.24A9.9,9.9,0,0,0,37.3,37.42a8.713,8.713,0,0,1-4.39,1.058,8.706,8.706,0,0,1-4.389-1.058A9.856,9.856,0,0,0,24.2,36.258V17.737A56.334,56.334,0,0,1,39.527,25.9l-6.4,10.221,1.058.665,6.706-10.7a.623.623,0,0,0-.139-.82c-.131-.1-1.487-1.173-3.632-2.574v-8.09a.625.625,0,0,0-.625-.625H32.07V10.878l3.1-.9a.626.626,0,0,0,.452-.6V6.5A.627.627,0,0,0,35,5.871H26.9l-.469-3.92A2.215,2.215,0,0,0,24.232,0H22.926a2.215,2.215,0,0,0-2.2,1.951l-.47,3.92h-8.1a.626.626,0,0,0-.625.625V9.379a.625.625,0,0,0,.451.6l3.1.9v3.091h-4.42a.625.625,0,0,0-.625.625v8.09c-2.146,1.4-3.5,2.469-3.632,2.574a.624.624,0,0,0-.14.82l6.707,10.7,1.059-.665L7.63,25.9a56.333,56.333,0,0,1,15.324-8.159V36.259A9.835,9.835,0,0,0,18.66,37.42a8.726,8.726,0,0,1-4.393,1.058,8.736,8.736,0,0,1-4.4-1.058,9.909,9.909,0,0,0-4.937-1.18A9.907,9.907,0,0,0,0,37.419l.54,1.127A8.743,8.743,0,0,1,4.934,37.49a8.731,8.731,0,0,1,4.4,1.057,9.917,9.917,0,0,0,4.937,1.181A9.9,9.9,0,0,0,19.2,38.546a8.733,8.733,0,0,1,4.391-1.056,8.716,8.716,0,0,1,4.389,1.057,9.877,9.877,0,0,0,4.93,1.181,9.891,9.891,0,0,0,4.931-1.181,8.72,8.72,0,0,1,4.392-1.057,8.72,8.72,0,0,1,4.39,1.057l.541-1.127a9.892,9.892,0,0,0-4.931-1.18M35.866,21.889a56.735,56.735,0,0,0-7.358-3.87v-2.8h7.358ZM21.968,2.1a.967.967,0,0,1,.958-.85h1.306a.967.967,0,0,1,.958.85l.451,3.771H21.516ZM15.886,9.808l-3.1-.9V7.121H34.372V8.909l-3.1.9a.624.624,0,0,0-.451.6v3.561H16.337V10.408a.624.624,0,0,0-.451-.6m-4.594,5.411h7.357v2.8a56.652,56.652,0,0,0-7.357,3.87ZM19.9,17.5V15.219h7.359V17.5c-1.137-.45-2.308-.863-3.5-1.211-.011,0-.023,0-.034,0a.593.593,0,0,0-.14-.007.6.6,0,0,0-.141.007c-.011,0-.023,0-.034,0-1.2.348-2.368.761-3.5,1.211"/>
      <rect id="Rectangle_59480" data-name="Rectangle 59480" width="1.25" height="1.272" transform="translate(19.423 22.545)"/>
      <rect id="Rectangle_59481" data-name="Rectangle 59481" width="1.25" height="1.272" transform="translate(26.486 22.544)"/>
    </g>
  </g>
</svg>
